Simulation
nRows=20
nColumns=15
endheader
time  TH_x TH_y TH_z SC_y  SC_z  SC_x  AC_y  AC_z  AC_x  GH_y  GH_z  GH_yy  EL_x  PS_y
0.0  0.000000  0.000000  0.000000  -29.206008671271785  0.5325805519917342  -54.34803581364234  29.18098318308349  39.153354531331026  42.329650435113706  -34.48024697640818  -0.9334838688312743  68.72654101020444  23.803764341007167  0.000000
0.031  0.000000  0.000000  0.000000  -27.1621212095263  1.3052705520180954  -53.412154794610515  27.96939389633182  37.63254455069685  41.84749008232522  -35.86035525859877  -0.40503145641430854  68.01517023223114  23.77714550237926  0.000000
0.062  0.000000  0.000000  0.000000  -26.8093634277141  2.063063045499407  -52.849439456523655  27.578265775518037  36.39334358082005  41.32866634780567  -36.07556404608957  0.2938062201287765  68.47344817449343  23.5131803796966  0.000000
0.093  0.000000  0.000000  0.000000  -27.589088206162373  2.2076201185034905  -52.28166688149174  28.249689508050015  36.12353835748224  40.693658459671774  -36.03459282449663  1.3513581547756095  68.96485156503026  22.765374134204876  0.000000
0.124  0.000000  0.000000  0.000000  -27.755072414299963  2.3854181339385696  -51.696558081261166  29.021667062585305  35.67608322362936  39.985071941752174  -36.28916315341356  2.2966984958287617  68.97425903783306  22.182302254827995  0.000000
0.155  0.000000  0.000000  0.000000  -28.211102618886166  2.0196358875123916  -51.01919128677479  29.530248786658476  35.68231479757015  39.192697682994215  -36.16245023507614  3.477870543495396  69.40268081663908  21.43995583883311  0.000000
0.186  0.000000  0.000000  0.000000  -29.678799350156282  1.5533548237361239  -50.223219234439505  27.672734318698396  36.35909670250065  38.73485637967717  -36.400123315435515  2.7588006298257604  69.5110119352373  21.23377697595465  0.000000
0.217  0.000000  0.000000  0.000000  -30.563783080524956  4.46996284235168  -44.132912948629425  33.74945385937883  32.11299076647485  33.56156060318483  -37.90490733514519  4.669996154896829  68.73804028796164  21.711390596485533  0.000000
0.248  0.000000  0.000000  0.000000  -28.787879654520076  9.109506942848311  -28.99288818268533  51.389293751245376  19.106585869837673  23.502867678631326  -41.47548747239085  13.195962711676074  63.96721433611067  21.40961992662077  0.000000
0.279  0.000000  0.000000  0.000000  -23.422925843163164  8.794125113695285  -28.10105495432149  41.883733980746804  17.380575339597915  25.625334334511276  -41.18734113871467  11.30408513642425  64.04241600213605  25.507119284879714  0.000000
0.31  0.000000  0.000000  0.000000  -11.688414426461147  11.09852617744341  -54.0535345541925  18.79712741635108  37.05195970649601  46.34261383110637  -43.31773823249409  -2.6436759220671457  62.5839797076006  25.20435334256194  0.000000
0.34099999999999997  0.000000  0.000000  0.000000  -6.392726901915413  25.609766407668474  -78.72130385944979  30.69887776594306  29.344627419765914  82.28415192830626  -48.34457808818498  11.211951447440196  60.49760566467104  19.612847660150557  0.000000
0.372  0.000000  0.000000  0.000000  -7.704784287626439  38.73893458060611  -81.05664368227798  48.58378329619377  5.638751740136719  103.7637920289296  -49.44686237289729  32.833661460899016  59.489587885627635  18.803678946831074  0.000000
0.403  0.000000  0.000000  0.000000  -7.324721139822632  27.684382667266348  -67.45055304698931  40.544881241653094  27.76746305851218  75.0937661651528  -42.26241735318052  19.08377792346985  48.878817873101426  20.982506338187076  0.000000
0.434  0.000000  0.000000  0.000000  -16.77995837681942  8.089797002940534  -40.42746049292299  37.13031934311257  38.812457991743955  33.00701859718221  -25.804663864566454  9.54427951782262  40.39280080129084  25.793730515309704  0.000000
0.46499999999999997  0.000000  0.000000  0.000000  -28.534291898814377  2.56457875325022  -10.531804733661104  54.3773610957154  8.854531361733788  11.757404611906214  -15.541919415744964  20.578230443009268  30.364215882059643  23.530649538933446  0.000000
0.496  0.000000  0.000000  0.000000  -33.04977615163282  2.3472481065778044  6.222469525535068  57.598883671448  -7.755551785874301  0.6910987057819624  -7.825467051077286  20.991816331128724  22.876087424430075  19.792848582586593  0.000000
0.527  0.000000  0.000000  0.000000  -33.295968323040356  1.8648110109691896  15.998464590613771  51.400585131320774  -12.137848068511842  -6.333434254875205  -0.6137964000147484  14.56487135424315  18.48170784354257  20.57177656073888  0.000000
0.558  0.000000  0.000000  0.000000  -32.43055623957872  1.494084420558715  23.433182539096933  54.625211679727826  -17.342582409114186  -12.054694346423013  3.8737158992616187  13.808242929941477  11.89161949712707  20.332524373216742  0.000000
0.589  0.000000  0.000000  0.000000  -32.416545358066415  0.9446209905608629  29.597562728094697  51.931206457355586  -20.51395868986204  -16.52608527459025  8.263249651425607  13.773847059414052  8.656189102795722  20.880045021155063  0.000000
